<?xml version="1.0" encoding="utf-8"?>
<!-- Generator: Adobe Illustrator 19.2.0, SVG Export Plug-In . SVG Version: 6.00 Build 0)  -->
<svg version="1.1" xmlns="http://www.w3.org/2000/svg" xmlns:xlink="http://www.w3.org/1999/xlink" x="0px" y="0px"
	 viewBox="0 0 600 600" style="enable-background:new 0 0 600 600;" xml:space="preserve">
<g id="Layer_3">
</g>
<g id="Layer_2">
	<path d="M295.8,505.4c130.2-3.3,201.7-220.7,201.7-220.7S424.4,386.8,288,400S94.1,307.8,94.1,307.8S165.6,508.7,295.8,505.4z
		 M258.1,175c0,28.2-37.1,51.1-82.8,51.1S92.4,203.2,92.4,175s37.1-51.1,82.8-51.1S258.1,146.7,258.1,175z M497.5,175.7
		c0,28.2-37.1,51.1-82.8,51.1s-82.8-22.9-82.8-51.1s37.1-51.1,82.8-51.1S497.5,147.5,497.5,175.7z"/>
</g>
<g id="Layer_1">
</g>
</svg>
