<?xml version="1.0" encoding="utf-8"?>
<!-- Generator: Adobe Illustrator 19.2.0, SVG Export Plug-In . SVG Version: 6.00 Build 0)  -->
<svg version="1.1" xmlns="http://www.w3.org/2000/svg" xmlns:xlink="http://www.w3.org/1999/xlink" x="0px" y="0px"
	 viewBox="0 0 1024 1024" style="enable-background:new 0 0 1024 1024;" xml:space="preserve">
<g id="Layer_1">
</g>
<g id="Layer_2">
	<path d="M512.8,12.6l96,270l258.8-123l-123,258.8l270,96l-270,96l123,258.8l-258.8-123l-96,270l-96-270l-258.8,123l123-258.8
		l-270-96l270-96l-123-258.8l258.8,123L512.8,12.6z M766,484H535v94h115v162.4c-15,7.7-47.2,13.5-89.8,13.5
		c-135.5,0-226.3-88.1-226.3-236.1c0-151.9,97.8-234.2,237.1-234.2c68.7,0,112.3,12.6,148.1,28.1l26.1-95.8
		c-30-14.5-92.9-31-173.2-31c-215.8,0-362.8,132.6-362.8,338.7c-1,98.7,32.9,184.8,91,240c61.9,59,145.4,87.1,255.7,87.1
		c87.1,0,168.2-21.3,210.2-36.8V484z"/>
</g>
</svg>
