<?xml version="1.0" encoding="utf-8"?>
<!-- Generator: Adobe Illustrator 19.2.0, SVG Export Plug-In . SVG Version: 6.00 Build 0)  -->
<svg version="1.1" xmlns="http://www.w3.org/2000/svg" xmlns:xlink="http://www.w3.org/1999/xlink" x="0px" y="0px"
	 viewBox="0 0 1024 1024" style="enable-background:new 0 0 1024 1024;" xml:space="preserve">
<style type="text/css">
	.st0{display:none;}
	.st1{display:inline;}
</style>
<g id="Layer_1">
</g>
<g id="Layer_2" class="st0">
	<path class="st1" d="M512.8,12.6l96,270l258.8-123l-123,258.8l270,96l-270,96l123,258.8l-258.8-123l-96,270l-96-270l-258.8,123
		l123-258.8l-270-96l270-96l-123-258.8l258.8,123L512.8,12.6z M766,484H535v94h115v162.4c-15,7.7-47.2,13.5-89.8,13.5
		c-135.5,0-226.3-88.1-226.3-236.1c0-151.9,97.8-234.2,237.1-234.2c68.7,0,112.3,12.6,148.1,28.1l26.1-95.8
		c-30-14.5-92.9-31-173.2-31c-215.8,0-362.8,132.6-362.8,338.7c-1,98.7,32.9,184.8,91,240c61.9,59,145.4,87.1,255.7,87.1
		c87.1,0,168.2-21.3,210.2-36.8V484z"/>
</g>
<g id="Layer_3">
	<g>
		<g>
			<path d="M424.8,100.5h173c14.5,0,26.8,5,36.9,15.1s15.2,22.3,15.2,36.7c0,15.3-5.5,27.9-16.5,38s-22.9,15.1-35.7,15.1H432.5
				c-16.2-0.2-30.2,7.4-42.2,22.7L244.5,416.1c-12.4,14.9-18.6,35.5-18.6,62v288.1c0,14.9,5,27.5,15.2,37.8s22.4,15.5,36.9,15.5
				h211.9c14,0,26.2-5.2,36.5-15.5s15.5-22.5,15.5-36.6V654.5H434c-14.9,0-27.3-5-37.2-15.2s-14.9-22.4-14.9-36.8
				c0-14.4,5-26.7,14.9-36.8c9.9-10.1,22.3-15.2,37.2-15.2h211.9v216.9c0,43-15.3,79.7-45.8,110.3c-30.5,30.6-67.3,45.8-110.2,45.8
				H278.1c-43.3,0-80.4-15.3-111.1-45.8s-46.1-67.3-46.1-110.3V479.3c0-51.6,13.8-95.2,41.5-130.7l153.4-195
				c11.1-14.8,26.7-27.4,46.8-37.7C382.6,105.7,403.3,100.5,424.8,100.5z"/>
		</g>
	</g>
	<circle cx="808.1" cy="601.8" r="62"/>
	<circle cx="807.3" cy="338.4" r="62"/>
</g>
</svg>
