<?xml version="1.0" encoding="utf-8"?>
<!-- Generator: Adobe Illustrator 19.2.0, SVG Export Plug-In . SVG Version: 6.00 Build 0)  -->
<svg version="1.1" id="Layer_1" xmlns="http://www.w3.org/2000/svg" xmlns:xlink="http://www.w3.org/1999/xlink" x="0px" y="0px"
	 viewBox="0 0 600 600" style="enable-background:new 0 0 600 600;" xml:space="preserve">
<g>
	<path d="M446.6,111.4c-1.3,22-2.7,48.7-2.7,93.4v184.1c0,68-14,116.8-48,147.4c-34,30-80.7,39.4-125.4,39.4
		c-41.4,0-85.4-8.7-113.4-26l18-62c20.7,12,55.4,24.7,94.7,24.7c53.4,0,93.4-28,93.4-98.1v-28h-1.3c-18.7,28.7-52,48-94.7,48
		c-80.7,0-138.1-66.7-138.1-158.8c0-106.7,69.4-171.5,147.4-171.5c49.4,0,78.7,24,94.1,50.7h1.3l3.3-43.4H446.6z M361.8,241.5
		c0-7.3-0.7-15.3-2.7-22c-8.7-30-32-52.7-66.7-52.7c-46,0-80.1,40-80.1,106.1c0,55.4,28,100.1,79.4,100.1c30.7,0,57.4-20,66.7-49.4
		c2-8.7,3.3-20,3.3-29.4V241.5z"/>
</g>
<circle cx="410.1" cy="50.6" r="42.5"/>
</svg>
