<?xml version="1.0" encoding="utf-8"?>
<!-- Generator: Adobe Illustrator 19.2.0, SVG Export Plug-In . SVG Version: 6.00 Build 0)  -->
<svg version="1.1" xmlns="http://www.w3.org/2000/svg" xmlns:xlink="http://www.w3.org/1999/xlink" x="0px" y="0px"
	 viewBox="0 0 612 612" style="enable-background:new 0 0 612 612;" xml:space="preserve">
<style type="text/css">
	.st0{display:none;}
	.st1{display:inline;fill:#ED1C24;stroke:#000000;stroke-miterlimit:10;}
	.st2{display:inline;stroke:#000000;stroke-miterlimit:10;}
</style>
<g id="Layer_2" class="st0">
	<rect x="210.5" y="211" class="st1" width="195.5" height="195.5"/>
</g>
<g id="Layer_1" class="st0">
	<path class="st2" d="M583.3,594.6H32.8c-6.6,0-12-5.4-12-12V32.1c0-6.6,5.4-12,12-12h550.5c6.6,0,12,5.4,12,12v550.5
		C595.3,589.2,589.9,594.6,583.3,594.6z M266,205.9l-150.6-91.1l91.1,150.6L35.6,307.4l170.9,42.1L115.4,500L266,408.9L308,579.8
		l42.1-170.9L500.7,500l-91.1-150.6l170.9-42.1l-170.9-42.1l91.1-150.6l-150.6,91.1L308,34.9L266,205.9z"/>
</g>
<g id="Layer_3">
	<g>
		<path d="M28.7,475c11.1,6.1,29.3,11.1,43.2,11.1c39.3,0,58.1-26.6,66.4-64.8l6.1-32.7h-1.1c-18.3,29.3-39.3,39.9-60.9,39.9
			c-37.6,0-55.9-35.4-57-77.5c-1.7-85.8,48.7-197.1,148.3-197.1c31,0,57.6,6.6,76.9,16.1L207,400.8c-8.9,47.6-23.2,84.1-46.5,106.8
			c-22.1,22.1-53.1,32.1-91.3,32.1c-21,0-47.6-5.5-58.1-12.2L28.7,475z M176,210.4c-3.9-2.2-8.3-3.3-14.4-3.3
			c-40.4,0-67,78-67.5,123.4c0,20.5,1.7,43.2,21,43.2c21.6,0,37.1-37.1,41.5-59.2L176,210.4z"/>
		<path d="M371.4,158.4l-48.2,251.9c-9.4,49.8-18.3,73.6-28.2,90.2c-13.8,23.2-41,39.3-78.6,39.3c-10.5,0-19.9-1.1-29.9-3.3
			l6.6-51.5c4.4,0.6,8.9,1.1,13.8,1.1c21,0,34.9-11.6,45.4-66.4l49.8-261.3H371.4z M314.4,89.2c0.6-19.9,14.4-42.6,38.7-42.6
			c22.7,0,33.2,17.2,32.7,36c0,27.7-18.8,43.2-39.9,43.2C323.8,125.7,313.8,109.7,314.4,89.2z"/>
		<path d="M380.8,475c11.1,6.1,29.3,11.1,43.2,11.1c39.3,0,58.1-26.6,66.4-64.8l6.1-32.7h-1.1c-18.3,29.3-39.3,39.9-60.9,39.9
			c-37.6,0-55.9-35.4-57-77.5c-1.7-85.8,48.7-197.1,148.3-197.1c31,0,57.6,6.6,76.9,16.1L559,400.8c-8.9,47.6-23.2,84.1-46.5,106.8
			c-22.1,22.1-53.1,32.1-91.3,32.1c-21,0-47.6-5.5-58.1-12.2L380.8,475z M528,210.4c-3.9-2.2-8.3-3.3-14.4-3.3
			c-40.4,0-67,78-67.5,123.4c0,20.5,1.7,43.2,21,43.2c21.6,0,37.1-37.1,41.5-59.2L528,210.4z"/>
	</g>
</g>
</svg>
