<?xml version="1.0" encoding="utf-8"?>
<!-- Generator: Adobe Illustrator 19.2.0, SVG Export Plug-In . SVG Version: 6.00 Build 0)  -->
<svg version="1.1" id="Layer_1" xmlns="http://www.w3.org/2000/svg" xmlns:xlink="http://www.w3.org/1999/xlink" x="0px" y="0px"
	 viewBox="0 0 600 600" style="enable-background:new 0 0 600 600;" xml:space="preserve">
<style type="text/css">
	.st0{fill:#FFFFFF;}
</style>
<path class="st0" d="M225.9,254.2c-1-0.3-2-0.5-3.6-0.9c1-1.3,1.7-2.3,2.4-3.2c-0.1,0-0.1-0.1-0.2-0.1c-1.6,1.7-3.2,3.4-4.9,5.2
	c1.4,0.2,2.9,0.4,4.5,0.6c-1.1,1.2-2.1,2.9-3.4,3.4c-4.8,1.8-6.1,6.7-9.8,10c1.7-0.3,2.9-0.4,4.1-0.6c0,0.2,0,0.3,0.1,0.5
	c-0.9,0.5-1.8,0.9-2.7,1.4c2.1,0.1,4-0.1,5.9-0.6c3.6-1,7.4-1.6,10.7-3.3c4.2-2.1,8.1-2.5,10.8,0.2c-9.8,7.8-21.5,11.8-33.6,15.9
	c3.8,3.4,7,1.9,9.9,0.4c6.4-3.3,12.6-7,18.9-10.4c2.3-1.2,4.9-1.9,7.5-2.9c0.4,1.9,0.7,3,1.1,4.7c-2.6,0.8-5.3,1.3-7.6,2.5
	c-5.5,2.8-12.2,3.2-16.8,8c-0.4,0.4-1.2,0.5-1.8,0.7c-3.9,1.6-7.8,3.1-11.7,4.7c0.1,0.4,0.2,0.9,0.3,1.3c1.2-0.1,2.6,0,3.7-0.4
	c2.9-1,5.7-2.4,8.5-3.5c3-1.2,6-2.4,9.7-3.9c-0.8,1.7-1.2,2.5-1.5,3.3c0.2,0.3,0.3,0.6,0.5,0.9c1.5-0.5,3-1.1,4.2-1.5
	c1.4,0.5,2.8,1.1,4.3,1.6c1.8,0.6,3.7,0.9,5.4,1.7c1.7,0.8,3.2,2.1,5,3.3c0.4,0.6,1,1.6,2,3.1c-4.8,0.5-9.2,1.4-13.6,1.2
	c-3.4-0.1-6.8-1.4-10-2.6c-4-1.6-6.9-1.1-8.9,2.1c2.6,0.4,5.2,0.8,7.9,1.1c2.7,0.4,5.4,0.7,8,1.2c0.6,0.1,1,1.1,1.5,1.7
	c-0.6,0.5-1.1,1-1.7,1.4c-0.8,0.5-1.6,1-2.4,1.4c0.1,0.3,0.2,0.6,0.3,0.9c2.1,0.5,4.2,1.1,6.4,1.7c0.4,2,0.8,4.5,1.2,6.4
	c1.1,1.5,2.1,2.7,2.9,4c0.6,0.9,0.8,2.6,1.5,2.8c3.8,1.4,2.8,5.5,4.7,7.9c-1.3-0.6-2.6-1.2-4-1.8c1.8,2.3,2,4,0.2,6.6
	c-0.9,1.4-2,3.3-1.7,6c0.4,3.6-1.1,7.7-2.6,11.2c-0.8,2-3.4,3.2-4.9,4.9c-1.9,2.2-3.5,4.7-5.7,7.8c2.2-0.3,4-0.6,6.1-0.8
	c-0.5,0.7-0.9,1.3-1.4,2.2c5.7-3.9,5.7-3.9,6.7-1.4c2.9-0.1,5.6-0.3,8.9-0.4c-0.6,1.6-0.9,2.7-1.3,3.7c-1.3,3.2-3,6.2-3.7,9.5
	c-0.4,2,0.7,4.4,1.1,6.7c0.6-4.8,4.7-6.3,8.1-8.5c-0.6-0.7-1-1.1-0.9-1.1c1.2-1.2,2.2-2.1,3.1-3.1c1.2-1.1,2.4-2.3,3.5-3.4
	c0.1,0,0.1,0,0.2,0c2.3,1.6,4.6,3.2,6.2,4.4c0,2.4,0,4.2,0,6c3.2-0.3,6.3-3,6.2-4.3c1.6-1.6,2.8-2.5,3.6-3.6c1.3-1.8,2.6-3,5.2-3.3
	c3.2-0.3,6.4-1.4,9.5-2.4c3-1,5.9-2.2,8.7-3.3c0.6,4,1.1,7.1,1.5,9.9c-0.7,0.2-1.9,0.3-3,0.7c-1.4,0.5-2.7,1.2-4.4,1.9
	c0.6,0.4,1.5,1.1,2.5,1.8c-0.7,0.8-1.5,1.7-2.6,3c1.7-0.2,2.7-0.4,4.6-0.7c-1.4,0.9-2,1.4-2.9,2c2.5,2.7,0.4,4.3-1.3,5.9
	c-2.8,2.7-5.2,5.9-8.5,7.8c-4.4,2.7-5.3,3-7.2,7.2c6.1-1.5,12.5-3.2,18.6-4.7c0.9,1.1,1.6,2.2,2,2.2c2.1-0.3,4.6,0.6,6-2
	c0.3-0.5,1.2-1,1.9-1.1c2.1-0.2,4.4-0.5,6.4,0c1.4,0.3,2.7,1.6,3.7,2.7c0.3,0.4-0.5,1.8-0.9,2.7c-1,2.5-2.5,4.9-0.7,7.7
	c0.4,0.6,0.1,1.7,0.1,3.5c-1.2-1.4-1.7-2-2.6-3c0,2.1,0,3.8,0,5.4c-0.9,0-1.7,0-2.6,0c0.1,1.3,0.2,2.6,0.4,4.7
	c2.6-2.1,4.5-3.6,7-5.6c1.9,8.2,2.9,16.2,1.9,25.1c-1.3-0.7-2.3-1.2-3.3-1.7c0.6-0.6,1.1-1.2,1.7-1.8c-3.1-0.5-4.2,1.5-2.9,4.8
	c-1.1,1.1-2.5,2-3.1,3.3c-0.9,2.2-1.1,4.7-2,6.9c-0.7,1.7-1.6,3-0.8,5.1c0.5,1.4-0.7,3.4,0.9,5c0.2,0.2-0.8,1.5-1.5,2.7
	c-0.5-1-0.6-1.3-0.8-1.6c-0.5-0.8-1.1-1.6-1.6-2.4c-0.2,0.9-0.6,1.9-0.6,2.8c0,1.5,0.4,3,0.5,3.8c0.8,0.7,1.8,1.3,1.8,1.7
	c-0.1,1.4-0.6,2.7-0.7,3.4c-3,3.3-5.7,6.4-8,9c0.4,1.3,0.9,2.5,1.3,3.7c-0.4-0.1-0.8-0.2-1.1-0.3c-0.6,1-1.2,1.9-2.1,3.2
	c-2.5-1.5-5.1-3.1-7.6-4.6c0.4-0.1,0.7-0.3,1.1-0.4c-0.3-1.9-0.6-3.7-1-5.6c-0.3,0-0.7,0-1-0.1c-0.5,0.5-1.3,1-1.4,1.6
	c-0.2,2.5-0.3,5.1-0.2,7.6c0,0.2,1.1,0.4,1.7,0.6c-0.3,0.3-0.5,0.5-0.8,0.8c-0.7,0.2-1.5,0.3-3,0.7c2.6,1,4.5,1.8,6.5,2.5
	c-2.1,3.2-2.1,5,0.2,6.3c-0.6,0.9-1.1,1.7-1.6,2.6c-0.7-0.2-1.3-0.4-1.9-0.6c-0.1,0.2-0.1,0.3-0.2,0.5c1.6,0.7,3.1,1.5,4.9,2.3
	c0,0,0.6-0.6,1.7-1.9c-0.2,4.7-4.2,5.4-5.3,7.6c2.4,0.1,4.9,0.3,7.4,0.5c1.4-2,2.7-3.9,4.2-6.1c-1.1-0.1-1.6-0.2-2.2-0.2
	c0.1-0.4,0.1-0.8,0.2-1.2c2.1,0.4,4.2,0.7,7,1.2c-3.1,3-5.8,5.6-8.9,8.6c5,0.6,9.3,1.2,13.7,1.8c4.4,0.6,5.9,3,4.3,7.2
	c4.6,2.5,7.3,6.6,8.6,11.5c1.4,5.2,2.9,10.4,3.7,15.6c0.5,3.5,2.3,5.9,4.7,8c2,1.7,3.2,3.5,3.2,6.1c0,2.1,0.1,4.3,0.4,6.3
	c0.3,1.8-1.4,6.8-2.7,7.2c-1.7,0.6-4.8-2.1-5.4-4.8c-0.5-2.2-0.5-4.7-1.5-6.7c-1.4-2.8-3.2-5.7-5.4-7.8c-1.4-1.3-4-1.4-6-2
	c-0.5,0.9-1.1,1.8-1.7,2.8c-0.9-0.5-1.5-0.9-2.2-1.3c-2.6-1.2-8.7,0.2-8.8,2.3c-0.2,3.5-2.8,3.8-5,4.1c-2.9,0.4-3.8,2.2-4.5,4.5
	c-0.5,1.7-1.3,3.3-2,5.1c-0.3,2.7-0.9,5.7-1,8.7c0,4.2,0.3,8.5,0.6,12.7c0.1,1.9,0.7,3.8,0.6,5.7c-0.5,4.8,0,5.5,4.9,5.6
	c0.9,0,1.8,0,2.6,0c64,0,128,0,191.9,0.1c1.1,0,2.1-0.1,3-0.1c0-16.5,0-32.8,0-50c-1.3,1.6-2.1,2.3-2.6,3.2
	c-2.2,3.8-4.2,7.7-6.3,11.6c-5.1,9-8.5,10-17.5,5.1c-8.8-4.7-17.7-9.3-26.4-14.3c-5.5-3.1-11.1-6.3-15.9-10.4
	c-3.6-3-7.4-7.1-8.4-11.4c-2-8.1-2.5-16.7-2.9-25.1c-0.4-8.6,0.3-17.2,0.4-25.7c0.1-8,0.2-16.1,0.1-24.1c0-4.2,2-7.6,4.3-10.8
	c3.4-4.8,7.3-9.3,10.6-14.1c1.7-2.4,2.7-5.3,4-7.9c4.6-8.6,8.1-17.7,8.9-27.4c0.9-11.2,0.9-22.4,1.1-33.6c0.1-3.1,0.8-5.4,3.5-7.3
	c1.8-1.3,3.5-3.2,4.4-5.2c2.7-6,5.1-12.1,7.5-18.3c3-7.9,5.6-16,8.9-23.8c3.5-8.3,5.4-16.8,4.2-25.8c-1.1-8.5-3-16.8-14-18
	c-0.8-0.1-2.1-1.6-2-2.4c0.4-3.8,1.4-7.5,1.9-11.2c0.9-7.3,1.8-14.5-0.2-21.9c-1.4-5.1-1.2-10.6-1.8-15.9c-0.4-4.1-0.2-8.5-1.4-12.3
	c-2.1-6.7-4.7-13.3-7.9-19.6c-6-11.9-13.1-23.1-21.8-33.3c-7.3-8.6-14.1-17.6-21.6-26.1c-8.2-9.2-18.1-16.2-28.6-22.6
	c-9.9-6.1-20.7-10.2-31.5-14.2c-10.4-3.8-21.2-5.6-32.2-6.6c-9.1-0.9-18-0.4-26.8,2.2c-2.8,0.8-5.8,1.4-8.6,2.2
	c-3.5,1.1-7.2,2-10.5,3.5c-3.3,1.4-6.3,3.5-9.5,5.2c-0.6,0.3-1.5,0.3-2.2,0.5c-1.5,0.4-3.1,0.4-4.3,1.1c-7.5,4.8-15.1,9.4-22.1,14.8
	c-14.4,11.1-27.6,23.3-36.6,39.6c-4.1,7.5-9.7,14.1-12.6,22.3c-1,2.9-3.1,5.3-4.2,8.2c-1.5,3.7-2.6,7.6-3.8,11.5
	c-0.9,2.8-1.8,5.7-2.6,8.5c-1.6,6-3.8,12-4.6,18.2c-1.1,8.4-1.1,16.9-1.5,25.3c-0.2,3.3-0.8,6.7,0,9.8c2,7.4,4.6,14.6,7.1,21.8
	c1.2,3.5,2.6,7,4.2,10.3c0.3,0.7,1.8,0.9,2.8,1.4c0-0.9,0.3-2.1-0.2-2.7c-1.5-2-1.2-3.8-0.4-5.9c1.5-4,1.1-7.9-0.5-11.8
	c-0.7-1.7-1.5-4.1-0.8-5.6c2.8-6-0.9-11.8,0.3-17c-1.5-0.2-3.1,0-3.6-0.6c-1.2-1.5-0.7-3.1,1.2-3.9c2.4-1.1,3.5-3,4-5.6
	c0.8-4,1.7-7.9,3.1-11.7c1.4-3.8,3.4-7.3,5-11c0.3-0.8,0-1.8-0.1-2.7c-0.2-2.4-1.4-5.4-0.4-6.9c1.7-2.4,3-4.8,3.8-7.6
	c1.4-5,3.7-9.8,5.1-14.8c2.3-8.4,5.2-16.5,11.7-22.5c5.7-5.3,11.8-10.2,18-14.8c4.2-3.1,8.6-6.3,13.4-8.1c4.6-1.8,8.3-6.7,14.2-4.7
	c0.5,0.2,1.2-0.4,1.8-0.6c5.6-1.9,11.4-2.4,17.2-1.3c1.8,0.3,3.3,1.8,5.8,3.3c3.6-0.8,5.5,1.3,4.3,6.2c2.6,1.5,5.1,3.1,7.3,4.4
	c0.1,1.4,0.2,2.7,0.4,4.7c1.3-1.5,1.9-2.2,2.6-2.9c0.2,0.2,0.5,0.3,0.7,0.5c-0.8,2.5-1.5,5-2.3,7.7c1-0.4,1.8-0.7,3.6-1.5
	c-3.3,4.7-1.1,8,1,11.4c1.3,2.1,2.3,4.7,2.6,7.1c0.2,1.8-0.8,3.8-1.3,5.7c1.3,0.4,2.5,0.8,3.9,1.2c-0.6,1.1-1.1,1.9-1.7,2.8
	c1.9,0,3.7,0,6.1,0c-1.5,1.9-2.4,3.2-3.5,4.5c0.6,0.2,1.1,0.3,1.6,0.5c0,0.3-0.1,0.5-0.1,0.8c-1.2-0.1-2.4-0.1-3.7-0.2
	c-0.2,1-1,1.4-1.4,2c-0.7,0.8-1.6,1.7-1.8,2.7c-0.5,3.3,0.2,7-1.2,9.8c-3.1,6-2,12.5-3.1,18.7c-0.9,4.9-1.4,9.9-2.1,15.2
	c-0.5-1-0.8-1.5-1.4-2.8c-0.2,1.4-0.2,1.9-0.3,2.4c-0.5,2.2-3.2,3.7-4.1,2.5c-0.6,0.9-1.2,1.9-2.2,3.6c-0.1-1.3-0.2-1.7-0.2-2.3
	c-0.8,1-1.4,1.7-2,2.5c-1.3-0.5-2.4-1-3-1.2c-1.7-5.7,3.6-10.9-0.7-15.7c-0.4,1.4-0.9,3.2-1.4,4.9c-0.7,3-2.3,6.1-1.8,8.8
	c0.4,2-0.4,3.4-1.1,3.8c-2.5,1.6-5.4,2.6-8.6,4.1c0.4-1,0.5-1.3,0.7-1.8c-5.8,0.6-10.7,2.6-14.8,6.6c-0.7,0.7-2.4,1.2-3,0.8
	c-2.3-1.7-4.1,0-5.3,1.1C229.6,249.2,227.9,251.8,225.9,254.2z"/>
<path class="st0" d="M278.1,390c-0.2-0.4-0.4-0.8-0.5-1.2c-4.8,0.9-9.6,1.9-12.3,7.4c-0.3-0.9-0.4-1.3-0.3-1.1c-1.6,0.4-3,1.2-4.4,1
	c-2.3-0.3-4.6-1.2-6.9-1.8c-2.7-0.7-5.4-1.3-8.1-1.9c-0.7-0.2-1.4-0.3-1.8-0.4c-0.8,1.8-1.5,3.4-2.1,4.5c2.3,3.5,4.5,6.9,7,10.6
	c2.2,1.2,5,2.7,8.6,4.6c0.7-3.1,1.6-6.2,2.2-9.3c0.5-2.9,2.4-4.9,5.4-4.9c1.2,0,2.4,0.2,3.8,0.3c-0.5-0.7-0.9-1.1-1.4-1.7
	C270.9,394.2,274.5,392.1,278.1,390z"/>
<path class="st0" d="M228,590.7c-0.5-1-0.6-1.3-0.7-1.4"/>
<path class="st0" d="M163.4,320.7c0-3.4,0-6.7,0-10.1c0-2.7,0-5.5,0.3-8.2c0.2-1.5,0.8-3.1-1.2-3.3c-0.8-0.1-2.3,1.5-2.4,2.5
	C158.9,308.3,160.1,314.7,163.4,320.7z"/>
<path class="st0" d="M184.1,337.4c-0.4-3-0.5-5.3-1-7.6c-0.2-0.8-1-1.5-1.5-2.2c-0.7,0.6-1.9,1.1-2.1,1.8c-0.5,2.2-1.2,4.6-0.8,6.7
	c0.2,1.1,2.4,2,3.8,2.7C182.8,339,183.7,337.7,184.1,337.4z"/>
<path class="st0" d="M253.9,597.4c0.2,0.2,0.4,0.5,0.6,0.7c3,0,6.1,0,9.1,0c0.1-0.4,0.3-0.7,0.4-1.1c-2-1.1-3.9-2.9-6-3.1
	C256.7,593.8,255.3,596.2,253.9,597.4z"/>
<path d="M489.7,598.5c-0.9,0-1.9,0.1-3,0.1c-64,0-128,0-191.9-0.1c-0.9,0-1.8,0-2.6,0c-4.9-0.1-5.4-0.8-4.9-5.6
	c0.2-1.8-0.4-3.8-0.6-5.7c-0.3-4.2-0.6-8.5-0.6-12.7c0-3,0.6-6,1-8.7c0.7-1.8,1.5-3.4,2-5.1c0.7-2.3,1.6-4.1,4.5-4.5
	c2.1-0.3,4.8-0.6,5-4.1c0.1-2.1,6.2-3.5,8.8-2.3c0.7,0.3,1.3,0.8,2.2,1.3c0.6-1,1.1-1.9,1.7-2.8c2.1,0.6,4.7,0.7,6,2
	c2.3,2.2,4,5,5.4,7.8c1,2,0.9,4.5,1.5,6.7c0.6,2.7,3.7,5.4,5.4,4.8c1.3-0.4,2.9-5.4,2.7-7.2c-0.3-2.1-0.4-4.2-0.4-6.3
	c0-2.7-1.2-4.5-3.2-6.1c-2.4-2.1-4.2-4.5-4.7-8c-0.8-5.3-2.2-10.5-3.7-15.6c-1.4-4.9-4-8.9-8.6-11.5c1.6-4.2,0.1-6.7-4.3-7.2
	c-4.4-0.5-8.7-1.1-13.7-1.8c3.1-3,5.8-5.6,8.9-8.6c-2.8-0.5-4.9-0.8-7-1.2c-0.1,0.4-0.1,0.8-0.2,1.2c0.6,0.1,1.2,0.1,2.2,0.2
	c-1.5,2.2-2.9,4.1-4.2,6.1c-2.5-0.1-5-0.3-7.4-0.5c1.1-2.1,5.2-2.9,5.3-7.6c-1.2,1.3-1.7,1.9-1.7,1.9c-1.8-0.8-3.4-1.6-4.9-2.3
	c0.1-0.2,0.1-0.3,0.2-0.5c0.6,0.2,1.2,0.4,1.9,0.6c0.5-0.8,1.1-1.7,1.6-2.6c-2.2-1.3-2.3-3.1-0.2-6.3c-1.9-0.8-3.8-1.5-6.5-2.5
	c1.6-0.3,2.3-0.5,3-0.7c0.3-0.3,0.5-0.5,0.8-0.8c-0.6-0.2-1.7-0.4-1.7-0.6c0-2.5,0-5.1,0.2-7.6c0-0.6,0.9-1,1.4-1.6
	c0.3,0,0.7,0,1,0.1c0.3,1.9,0.6,3.7,1,5.6c-0.4,0.1-0.7,0.3-1.1,0.4c2.6,1.5,5.1,3.1,7.6,4.6c0.8-1.2,1.4-2.2,2.1-3.2
	c0.4,0.1,0.8,0.2,1.1,0.3c-0.4-1.2-0.8-2.4-1.3-3.7c2.3-2.6,5-5.7,8-9c0.2-0.7,0.7-2,0.7-3.4c0-0.5-1-1-1.8-1.7
	c-0.1-0.9-0.4-2.4-0.5-3.8c0-0.9,0.4-1.9,0.6-2.8c0.6,0.8,1.1,1.6,1.6,2.4c0.2,0.3,0.3,0.6,0.8,1.6c0.7-1.2,1.6-2.6,1.5-2.7
	c-1.6-1.6-0.4-3.6-0.9-5c-0.8-2.2,0.1-3.4,0.8-5.1c0.9-2.2,1.1-4.7,2-6.9c0.6-1.3,2-2.2,3.1-3.3c-1.3-3.3-0.2-5.2,2.9-4.8
	c-0.6,0.6-1.1,1.2-1.7,1.8c1,0.5,1.9,1,3.3,1.7c1-8.9,0-16.9-1.9-25.1c-2.5,2-4.5,3.6-7,5.6c-0.2-2.1-0.3-3.4-0.4-4.7
	c0.8,0,1.7,0,2.6,0c0-1.7,0-3.3,0-5.4c0.9,1,1.4,1.7,2.6,3c0-1.8,0.3-2.9-0.1-3.5c-1.8-2.8-0.3-5.2,0.7-7.7c0.4-0.9,1.2-2.3,0.9-2.7
	c-1-1.2-2.3-2.5-3.7-2.7c-2.1-0.4-4.3-0.1-6.4,0c-0.7,0.1-1.6,0.5-1.9,1.1c-1.4,2.6-3.9,1.7-6,2c-0.4,0.1-1.1-1.1-2-2.2
	c-6.1,1.5-12.5,3.2-18.6,4.7c1.9-4.3,2.8-4.6,7.2-7.2c3.2-2,5.7-5.2,8.5-7.8c1.7-1.7,3.8-3.2,1.3-5.9c0.9-0.6,1.5-1.1,2.9-2
	c-1.9,0.3-2.9,0.4-4.6,0.7c1.1-1.3,1.9-2.2,2.6-3c-0.9-0.7-1.9-1.4-2.5-1.8c1.7-0.7,3-1.4,4.4-1.9c1.1-0.4,2.3-0.5,3-0.7
	c-0.4-2.7-0.9-5.9-1.5-9.9c-2.8,1.1-5.7,2.3-8.7,3.3c-3.1,1-6.3,2.2-9.5,2.4c-2.6,0.2-3.9,1.5-5.2,3.3c-0.9,1.2-2,2.1-3.6,3.6
	c0.2,1.3-2.9,4-6.2,4.3c0-1.8,0-3.5,0-6c-1.6-1.1-3.9-2.7-6.2-4.4c1.3-0.6,2.5-1.3,3.9-1.9c-1.1-1.5-1.7-2.5-2.8-4
	c-1.8,2-3.4,3.7-5.4,5.9c1.8,0,3,0,4.2,0c-1.2,1.1-2.4,2.3-3.5,3.4c-1,0.9-1.9,1.9-3.1,3.1c0,0,0.4,0.4,0.9,1.1
	c-3.4,2.2-7.5,3.7-8.1,8.5c-0.4-2.3-1.5-4.7-1.1-6.7c0.7-3.3,2.4-6.4,3.7-9.5c0.4-1.1,0.8-2.1,1.3-3.7c-3.3,0.2-6,0.3-8.9,0.4
	c-0.9-2.5-0.9-2.5-6.7,1.4c0.5-0.8,0.9-1.5,1.4-2.2c-2.1,0.3-3.9,0.5-6.1,0.8c2.3-3.1,3.9-5.6,5.7-7.8c1.5-1.8,4.1-3,4.9-4.9
	c1.5-3.5,3-7.6,2.6-11.2c-0.3-2.7,0.8-4.6,1.7-6c1.8-2.6,1.5-4.3-0.2-6.6c1.3,0.6,2.6,1.2,4,1.8c-1.9-2.4-0.9-6.5-4.7-7.9
	c-0.7-0.3-0.9-1.9-1.5-2.8c-0.8-1.3-1.8-2.5-2.9-4c-0.3-1.9-0.8-4.4-1.2-6.4c-2.3-0.6-4.4-1.1-6.4-1.7c-0.1-0.3-0.2-0.6-0.3-0.9
	c0.8-0.5,1.7-0.9,2.4-1.4c0.6-0.4,1.1-0.9,1.7-1.4c-0.5-0.6-0.9-1.6-1.5-1.7c-2.6-0.5-5.3-0.8-8-1.2c-2.7-0.4-5.3-0.8-7.9-1.1
	c2-3.2,4.9-3.7,8.9-2.1c3.2,1.3,6.6,2.5,10,2.6c4.4,0.2,8.9-0.7,13.6-1.2c-1-1.5-1.7-2.5-2-3.1c-1.8-1.2-3.3-2.5-5-3.3
	c-1.7-0.8-3.6-1.1-5.4-1.7c-1.4-0.5-2.8-1.1-4.3-1.6c-1.2,0.4-2.7,1-4.2,1.5c-0.2-0.3-0.3-0.6-0.5-0.9c0.3-0.8,0.7-1.5,1.5-3.3
	c-3.8,1.5-6.7,2.7-9.7,3.9c-2.8,1.2-5.6,2.5-8.5,3.5c-1.1,0.4-2.4,0.3-3.7,0.4c-0.1-0.4-0.2-0.9-0.3-1.3c3.9-1.6,7.8-3.1,11.7-4.7
	c0.6-0.2,1.4-0.3,1.8-0.7c4.6-4.8,11.2-5.2,16.8-8c2.3-1.2,5-1.7,7.6-2.5c-0.4-1.7-0.7-2.8-1.1-4.7c-2.6,1-5.2,1.7-7.5,2.9
	c-6.4,3.4-12.5,7.1-18.9,10.4c-2.8,1.4-6,3-9.9-0.4c12.1-4,23.8-8.1,33.6-15.9c-2.7-2.7-6.6-2.4-10.8-0.2c-3.3,1.7-7.1,2.3-10.7,3.3
	c-1.9,0.5-3.8,0.7-5.9,0.6c0.9-0.5,1.8-0.9,2.7-1.4c0-0.2,0-0.3-0.1-0.5c-1.2,0.2-2.4,0.3-4.1,0.6c3.8-3.3,5-8.2,9.8-10
	c1.4-0.5,2.3-2.2,3.4-3.4c0.6-0.5,1.2-1,1.8-1.5c2-2.4,3.8-5,6.1-7c1.3-1.1,3-2.9,5.3-1.1c0.5,0.4,2.3-0.1,3-0.8
	c4.1-4,9-6.1,14.8-6.6c-0.2,0.5-0.3,0.8-0.7,1.8c3.2-1.4,6-2.5,8.6-4.1c0.6-0.4,1.4-1.8,1.1-3.8c-0.5-2.7,1.1-5.9,1.8-8.8
	c0.4-1.8,1-3.5,1.4-4.9c4.3,4.8-0.9,10.1,0.7,15.7c0.6,0.2,1.7,0.7,3,1.2c0.7-0.8,1.3-1.6,2-2.5c0.1,0.6,0.1,1,0.2,2.3
	c1-1.7,1.6-2.7,2.2-3.6c1,1.2,3.7-0.3,4.1-2.5c0.1-0.5,0.1-1,0.3-2.4c0.7,1.3,0.9,1.9,1.4,2.8c0.7-5.3,1.2-10.2,2.1-15.2
	c1.1-6.2,0-12.7,3.1-18.7c1.4-2.8,0.7-6.5,1.2-9.8c0.2-1,1.1-1.9,1.8-2.7c0.5-0.6,1.2-1,1.4-2c1.2,0.1,2.4,0.1,3.7,0.2
	c0-0.3,0.1-0.5,0.1-0.8c-0.5-0.1-1-0.3-1.6-0.5c1-1.3,2-2.6,3.5-4.5c-2.4,0-4.2,0-6.1,0c0.6-0.9,1-1.7,1.7-2.8
	c-1.4-0.4-2.5-0.8-3.9-1.2c0.5-1.9,1.5-3.9,1.3-5.7c-0.3-2.5-1.3-5-2.6-7.1c-2.1-3.5-4.3-6.7-1-11.4c-1.8,0.8-2.6,1.1-3.6,1.5
	c0.8-2.8,1.6-5.2,2.3-7.7c-0.2-0.2-0.5-0.3-0.7-0.5c-0.6,0.7-1.2,1.4-2.6,2.9c-0.2-2-0.3-3.3-0.4-4.7c-2.2-1.3-4.7-2.8-7.3-4.4
	c1.2-5-0.7-7-4.3-6.2c-2.4-1.4-4-3-5.8-3.3c-5.8-1.1-11.5-0.7-17.2,1.3c-0.6,0.2-1.3,0.8-1.8,0.6c-5.9-2-9.6,2.9-14.2,4.7
	c-4.8,1.8-9.2,5-13.4,8.1c-6.2,4.7-12.3,9.6-18,14.8c-6.5,6-9.4,14.1-11.7,22.5c-1.4,5-3.6,9.8-5.1,14.8c-0.8,2.9-2.1,5.2-3.8,7.6
	c-1,1.5,0.2,4.6,0.4,6.9c0.1,0.9,0.4,2,0.1,2.7c-1.6,3.7-3.7,7.2-5,11c-1.4,3.8-2.3,7.8-3.1,11.7c-0.5,2.6-1.6,4.6-4,5.6
	c-2,0.9-2.5,2.4-1.2,3.9c0.5,0.6,2.1,0.4,3.6,0.6c-1.2,5.2,2.4,11-0.3,17c-0.7,1.5,0.1,3.9,0.8,5.6c1.6,3.9,2.1,7.8,0.5,11.8
	c-0.8,2.1-1.1,3.9,0.4,5.9c0.4,0.6,0.1,1.8,0.2,2.7c-0.9-0.5-2.4-0.7-2.8-1.4c-1.6-3.4-3-6.8-4.2-10.3c-2.5-7.2-5.1-14.4-7.1-21.8
	c-0.8-3.1-0.2-6.5,0-9.8c0.4-8.4,0.5-16.9,1.5-25.3c0.8-6.1,3-12.1,4.6-18.2c0.8-2.9,1.7-5.7,2.6-8.5c1.2-3.8,2.3-7.7,3.8-11.5
	c1.1-2.8,3.2-5.3,4.2-8.2c3-8.2,8.5-14.8,12.6-22.3c9-16.3,22.2-28.5,36.6-39.6c7-5.4,14.7-10,22.1-14.8c1.2-0.8,2.9-0.8,4.3-1.1
	c0.7-0.2,1.6-0.2,2.2-0.5c3.2-1.7,6.2-3.7,9.5-5.2c3.4-1.5,7-2.5,10.5-3.5c2.8-0.8,5.8-1.4,8.6-2.2c8.8-2.6,17.7-3,26.8-2.2
	c11,1,21.8,2.8,32.2,6.6c10.8,4,21.6,8.1,31.5,14.2c10.4,6.4,20.4,13.4,28.6,22.6c7.5,8.4,14.3,17.5,21.6,26.1
	c8.7,10.2,15.8,21.4,21.8,33.3c3.2,6.3,5.7,12.9,7.9,19.6c1.2,3.9,1,8.2,1.4,12.3c0.5,5.3,0.4,10.8,1.8,15.9
	c2,7.4,1.1,14.6,0.2,21.9c-0.5,3.8-1.4,7.5-1.9,11.2c-0.1,0.7,1.2,2.3,2,2.4c11,1.1,12.8,9.4,14,18c1.2,8.9-0.7,17.4-4.2,25.8
	c-3.3,7.8-5.8,15.9-8.9,23.8c-2.4,6.1-4.8,12.3-7.5,18.3c-0.9,2-2.6,3.9-4.4,5.2c-2.7,1.9-3.4,4.3-3.5,7.3
	c-0.2,11.2-0.2,22.5-1.1,33.6c-0.8,9.7-4.3,18.8-8.9,27.4c-1.4,2.6-2.4,5.5-4,7.9c-3.4,4.8-7.2,9.3-10.6,14.1
	c-2.3,3.2-4.4,6.6-4.3,10.8c0.1,8,0,16.1-0.1,24.1c-0.1,8.6-0.7,17.2-0.4,25.7c0.4,8.4,0.9,17,2.9,25.1c1.1,4.3,4.9,8.4,8.4,11.4
	c4.8,4.1,10.4,7.2,15.9,10.4c8.7,4.9,17.6,9.6,26.4,14.3 M451.8,582.8c-0.5-0.2-1.4-0.4-1.4-0.6c0.1-1.4,0.3-2.7,0.5-4.2
	c-1.3,0-2.3,0-3.1,0c0,2.3,0,4.2,0,6.2c0.1,0.4,0.1,1.2,0.2,1.2c2.8,0.1,5.6,0.1,8.4,0c0.2,0,0.4-1.1,0.3-0.8
	c-0.8-0.3-1.3-0.5-1.8-0.7C453.9,583.5,452.9,583.2,451.8,582.8z M446.1,588.7c-1.3,0-2.6,0-3.9,0c-0.2,2.2-0.9,4.6-0.3,6.7
	c0.5,1.7,4.6,1.4,4.8-0.4C447.1,593,446.4,590.8,446.1,588.7z M465,578.8l0.1,0.1c-0.9-0.5-1.8-1-3-1.6c0.2,2.7,0.3,4.5,0.4,7.3
	c-1.4-1.3-2-1.8-2.7-2.4c0.2,1,0.3,1.8,0.5,2.5c-0.5,0.4-1,0.8-1.5,1.2c-0.1-0.8-0.2-1.5-0.2-1.3c0.2,0.1,1.1,0.9,1.4,0.7
	c1.5-1,4.9,2.1,4.9-2.1c0.4,0.2,0.8,0.3,1.3,0.5c0.5,0.5,1,1.1,1.6,1.6c0.3-0.5,0.8-1,0.8-1.6c0.1-2,0-3.9,0-6.3
	C467.4,578,466.2,578.4,465,578.8z M461.1,592.3c0.1-0.1,0.2-0.2,0.3-0.2c0.1-1.2,0.5-3.4,0.1-3.5c-1.9-0.6-3.9-0.8-5.8-1.1
	c0,3.4,0,5.9,0,9.1c1.2-0.4,2.5-0.5,3.3-1.2C459.9,594.7,460.4,593.4,461.1,592.3z M453.4,588.7c-1.1-0.2-2.2-0.4-3.4-0.7
	c-2,1.4-2.4,6.7-0.6,7.8c0.7,0.4,1.7,0.6,2.5,0.5C454.7,596,455.5,591.9,453.4,588.7z M309.3,363.9c0.2-0.3,0.3-0.6,0.5-0.8
	c-1.6-2.9-0.8-5.1,1.8-6.7c0.9-0.6,1.7-2.2,1.7-3.3c-0.2-4.4-0.7-8.8-1.3-13.1c-0.2-1.3-1-2.6-1.6-3.9c-0.4-0.9-1.4-1.7-1.5-2.6
	c-0.3-3.5,1.2-7.1-0.8-10.5c-0.2-0.4,0.1-1,0.1-1.6c0.2-2.2,0.5-4.4,0.6-6.7c0.1-2.7-0.2-5.4,0-8.1c0.4-6.1,1.5-12.1,1.3-18.1
	c-0.1-5.2-1.6-10.4-2.5-15.6c-1.4-8.3-2.8-16.5-4.2-24.8c-0.3-2.1-0.8-4.1-0.8-6.2c-0.1-5.1,0.1-10.2,0-15.3c0-0.9-1.1-1.8-1.1-2.7
	c-0.1-3.6-0.2-7.2-0.1-10.9c0.1-3,0.6-6,0.9-8.9c0-0.4-0.2-1.1-0.2-1.1c-2.5,0.4-1.3-1.6-1.3-2.3c0.1-2.8-0.6-4.4-3.7-3.4
	c-0.1-0.9-0.1-1.7-0.1-2.4c-0.3,0-0.7-0.1-1-0.1c-0.2,1-0.5,2-0.5,3c-0.4,3.8,0.2,8-1.2,11.5c-1.3,3.2-1.1,6.1-0.9,9.2
	c0.4,6.2,0.5,12.5,1.7,18.6c1.5,7.6-1.3,14.3-3.3,21.1c-0.9,3-1.3,5.8-1.4,8.8c-0.1,3.5,0.4,7.1-0.2,10.4c-0.8,4.2-2.1,8.3-6.6,10.5
	c-0.7,0.3-1.3,1.2-1.6,2c-1.1,3.9-4,6.2-7.4,7.9c-2.3,1.2-4.7,2.2-6.9,3.6c-3.7,2.3-7.5,4.6-10.8,7.4c-1.6,1.3-2.2,3.8-3.2,5.8
	c1.7,0.8,3.3,1.7,5,2.3c1.4,0.4,3.2,0,4.4,0.7c2.7,1.6,4.9,3.6,8,4.6c2.7,0.9,5,3.9,6.6,6.5c2,3.1,2.5,6.8,0.5,10.3
	c-2.2,3.8-2.5,7.9-2.1,12.1c0.6,5.8,4.7,10.1,9.6,10.2c0.5-1.2,0.9-2.4,1.4-3.7c1.3-3.2,3-4.2,6.1-2.9c2.2,0.9,4.2,2.3,6.3,3.5
	C302.8,360.1,306,362,309.3,363.9z M462.5,591.8c1.6,2,2.6,3.2,3.7,4.5c1.2-1.5,3-2.9,3.2-4.6c0.2-1.1-1.9-2.6-2.9-3.9
	C465.3,589,464.2,590.1,462.5,591.8z M480.8,585.3c0.2-1.3,0.1-2.5,0.5-3.5c1.9-4.2,2-4.2-2.8-4.3c-0.7,0-1.5,0.2-2.4,0.3
	c0.8,2.5,1.6,4.9,2.5,7.5C479,585.3,479.9,585.3,480.8,585.3z M475.2,583.6c-1.2-0.8-2-1.4-2.8-1.9c0.7-0.8,1.5-1.7,2.4-2.7
	c-1.2-1.6-2.8-1.2-4,0.3c-1.4,1.7-1.4,3.7,0.4,5.2C472.8,585.8,474.2,585.6,475.2,583.6z M234.3,299.6c0.1,0.4,0.2,0.8,0.3,1.2
	c1.7,0.1,3.4,0.1,5.9,0.3c-1-1.2-1.4-2.2-1.9-2.2C237.1,298.9,235.7,299.3,234.3,299.6z M470,587.9c1,3,2,5.7,2.9,8.3
	c0.1-0.1,0.3-0.1,0.4-0.2c-0.7-2.5-1.5-5-2.2-7.5c0.3-0.2,0.5-0.3,0.8-0.5c0.5,0.7,1.1,1.4,1.6,2.1
	C474.2,587.3,472.6,587.3,470,587.9z"/>
<path d="M278.1,390c-3.6,2.1-7.2,4.1-10.9,6.2c0.5,0.6,0.8,1,1.4,1.7c-1.5-0.1-2.7-0.3-3.8-0.3c-3,0-4.9,2-5.4,4.9
	c-0.5,3.1-1.4,6.2-2.2,9.3c-3.6-1.9-6.3-3.4-8.6-4.6c-2.4-3.7-4.7-7.1-7-10.6c0.5-1.1,1.2-2.7,2.1-4.5c0.4,0.1,1.1,0.2,1.8,0.4
	c2.7,0.6,5.4,1.2,8.1,1.9c2.3,0.6,4.5,1.5,6.9,1.8c1.3,0.2,2.8-0.6,4.4-1c-0.1-0.2,0.1,0.2,0.3,1.1c2.8-5.5,7.5-6.5,12.3-7.4
	C277.7,389.2,277.9,389.6,278.1,390z"/>
<path d="M163.4,320.7c-3.3-6-4.5-12.4-3.3-19c0.2-1,1.7-2.6,2.4-2.5c2,0.1,1.4,1.8,1.2,3.3c-0.3,2.7-0.3,5.4-0.3,8.2
	C163.3,313.9,163.4,317.3,163.4,320.7z"/>
<path d="M184.1,337.4c-0.3,0.3-1.3,1.6-1.6,1.4c-1.4-0.7-3.6-1.6-3.8-2.7c-0.4-2.1,0.3-4.5,0.8-6.7c0.2-0.7,1.4-1.2,2.1-1.8
	c0.5,0.7,1.4,1.4,1.5,2.2C183.5,332.1,183.7,334.4,184.1,337.4z"/>
<path d="M253.9,597.4c1.4-1.2,2.9-3.6,4.1-3.5c2.1,0.2,4,2,6,3.1c-0.1,0.4-0.3,0.7-0.4,1.1c-3,0-6.1,0-9.1,0
	C254.2,597.9,254.1,597.7,253.9,597.4z"/>
<path class="st0" d="M256.9,365.4c-1.2,0-2.3,0-4.2,0c2-2.2,3.6-4,5.4-5.9c1.1,1.5,1.7,2.5,2.8,4c-1.3,0.7-2.6,1.3-3.9,1.9
	C257,365.4,256.9,365.4,256.9,365.4z"/>
<path d="M225.9,254.2c-0.6,0.5-1.2,1-1.8,1.5c-1.5-0.2-3-0.4-4.5-0.6c1.7-1.8,3.3-3.5,4.9-5.2c0.1,0,0.1,0.1,0.2,0.1
	c-0.7,1-1.5,1.9-2.4,3.2C223.9,253.6,224.9,253.9,225.9,254.2z"/>
<path class="st0" d="M309.3,363.9c-3.2-1.9-6.5-3.8-9.7-5.6c-2.1-1.2-4.1-2.6-6.3-3.5c-3.2-1.3-4.9-0.3-6.1,2.9
	c-0.5,1.2-0.9,2.4-1.4,3.7c-4.9-0.1-9-4.4-9.6-10.2c-0.4-4.2-0.1-8.3,2.1-12.1c2-3.4,1.5-7.2-0.5-10.3c-1.6-2.6-3.9-5.6-6.6-6.5
	c-3.2-1.1-5.4-3.1-8-4.6c-1.2-0.7-3-0.2-4.4-0.7c-1.7-0.6-3.3-1.5-5-2.3c1.1-2,1.7-4.4,3.2-5.8c3.3-2.8,7.1-5.1,10.8-7.4
	c2.2-1.4,4.6-2.4,6.9-3.6c3.4-1.8,6.3-4,7.4-7.9c0.2-0.8,0.9-1.7,1.6-2c4.4-2.1,5.8-6.3,6.6-10.5c0.6-3.4,0.1-7,0.2-10.4
	c0.1-3,0.5-5.8,1.4-8.8c2.1-6.7,4.8-13.5,3.3-21.1c-1.2-6.1-1.3-12.4-1.7-18.6c-0.2-3.1-0.4-6,0.9-9.2c1.4-3.4,0.9-7.6,1.2-11.5
	c0.1-1,0.4-2,0.5-3c0.3,0,0.7,0.1,1,0.1c0,0.8,0.1,1.5,0.1,2.4c3.1-1,3.7,0.6,3.7,3.4c0,0.7-1.2,2.7,1.3,2.3c0,0,0.2,0.7,0.2,1.1
	c-0.3,3-0.8,6-0.9,8.9c-0.2,3.6-0.1,7.2,0.1,10.9c0,0.9,1.1,1.8,1.1,2.7c0.1,5.1-0.1,10.2,0,15.3c0,2.1,0.5,4.1,0.8,6.2
	c1.4,8.3,2.8,16.5,4.2,24.8c0.9,5.2,2.4,10.4,2.5,15.6c0.2,6-0.9,12.1-1.3,18.1c-0.2,2.7,0.1,5.4,0,8.1c-0.1,2.2-0.4,4.4-0.6,6.7
	c-0.1,0.5-0.4,1.2-0.1,1.6c2,3.4,0.4,7,0.8,10.5c0.1,0.9,1,1.7,1.5,2.6c0.6,1.3,1.4,2.5,1.6,3.9c0.6,4.4,1,8.7,1.3,13.1
	c0.1,1.1-0.8,2.7-1.7,3.3c-2.6,1.6-3.4,3.9-1.8,6.7C309.6,363.3,309.4,363.6,309.3,363.9z"/>
<path d="M462.5,591.8c1.7-1.7,2.8-2.8,4-4c1,1.3,3.1,2.8,2.9,3.9c-0.2,1.6-2.1,3-3.2,4.6C465.1,595,464.1,593.8,462.5,591.8z"/>
<path class="st0" d="M480.8,585.3c-0.9,0-1.8,0-2.2,0c-0.9-2.7-1.7-5-2.5-7.5c1-0.1,1.7-0.3,2.4-0.3c4.7,0,4.7,0,2.8,4.3
	C480.8,582.7,480.9,584,480.8,585.3z"/>
<path d="M450,588c1.1,0.2,2.2,0.4,3.4,0.7c0.1,1.7,0.5,3.4,0.3,5.1c-0.1,0.7-1.4,1.9-2.1,1.9c-0.9-0.1-2.5-1.1-2.5-1.8
	C449.1,592,449.7,590,450,588z"/>
<path d="M475.2,583.6c-0.9,2-2.4,2.3-4.1,0.9c-1.8-1.5-1.9-3.5-0.4-5.2c1.2-1.5,2.8-1.9,4-0.3c-0.9,1-1.6,1.9-2.4,2.7
	C473.2,582.2,474,582.8,475.2,583.6z"/>
<path d="M466.3,583.8c-0.4-0.2-0.8-0.3-1.3-0.5c-0.3,0.8-0.6,1.5-0.9,2.3c-0.4-0.3-0.7-0.6-1.1-1c0-2,0-4,0-6.3
	c0.8,0.2,1.4,0.4,2,0.6c0,0-0.1-0.1-0.1-0.1c0.3,0.5,0.6,1.1,1,1.9c0.7-0.9,1.2-1.6,1.7-2.3c0.6,1.9,0.6,3.7,0.4,5.4
	C468,583.8,466.9,583.8,466.3,583.8z"/>
<path d="M461.3,592.1c-0.1,0.1-0.2,0.2-0.3,0.2c-1,0.3-2,0.7-3,1c0.2,0.1,0.3,0.3,0.5,0.4c-0.4,0.7-0.9,1.3-1.3,2
	c-0.2-0.2-0.4-0.3-0.6-0.5c0-2.3,0-4.5,0-6.8C460.8,587.5,461.9,588.3,461.3,592.1z"/>
<path class="st0" d="M461.3,592.1c0.6-3.7-0.5-4.6-4.7-3.5c0,2.3,0,4.5,0,6.8c0.2,0.2,0.4,0.3,0.6,0.5c0.4-0.7,0.9-1.3,1.3-2
	c-0.2-0.1-0.3-0.3-0.5-0.4c1-0.3,2-0.7,3-1c-0.7,1.1-1.2,2.3-2.1,3.1c-0.8,0.7-2.1,0.8-3.3,1.2c0-3.2,0-5.8,0-9.1
	c1.9,0.3,3.9,0.5,5.8,1.1C461.8,588.7,461.4,590.9,461.3,592.1z"/>
<path class="st0" d="M465.1,578.9c-0.6-0.2-1.2-0.3-2-0.6c0,2.3,0,4.3,0,6.3c0.4,0.3,0.7,0.6,1.1,1c0.3-0.8,0.6-1.5,0.9-2.3
	c-0.1,4.2-3.4,1.1-4.9,2.1c-0.3,0.2-1.3-0.6-1.4-0.7c0-0.2,0.1,0.5,0.2,1.3c0.5-0.4,1-0.8,1.5-1.2c-0.1-0.8-0.3-1.5-0.5-2.5
	c0.7,0.6,1.2,1.1,2.7,2.4c-0.2-2.8-0.3-4.6-0.4-7.3C463.3,577.9,464.2,578.4,465.1,578.9z"/>
<path d="M442.3,588.7c1.3,0,2.6,0,3.9,0c0.2,1.7,0.6,3.4,0.4,5.1c-0.1,0.7-1.4,1.9-2.1,1.8c-0.9-0.1-2.4-1.1-2.5-1.9
	C441.6,592.2,442.1,590.4,442.3,588.7z M446.1,592.1c-0.7-1.1-1.3-1.8-1.8-2.6c-0.5,0.8-1.4,1.5-1.4,2.3c0,1,0.8,1.9,1.3,2.8
	C444.8,593.8,445.4,593.1,446.1,592.1z"/>
<path class="st0" d="M450,588c-0.4,2-1,3.9-0.9,5.9c0,0.7,1.6,1.7,2.5,1.8c0.7,0,2-1.1,2.1-1.9c0.2-1.7-0.2-3.4-0.3-5.1
	c2.1,3.2,1.3,7.3-1.5,7.6c-0.8,0.1-1.8,0-2.5-0.5C447.6,594.7,448.1,589.4,450,588z"/>
<path class="st0" d="M442.3,588.7c-0.2,1.7-0.6,3.5-0.4,5.1c0.1,0.8,1.6,1.8,2.5,1.9c0.7,0.1,2.1-1.1,2.1-1.8
	c0.2-1.7-0.2-3.4-0.4-5.1c0.3,2.1,1,4.3,0.7,6.3c-0.3,1.7-4.3,2.1-4.8,0.4C441.4,593.4,442.1,591,442.3,588.7z"/>
<path class="st0" d="M234.3,299.6c1.4-0.3,2.9-0.7,4.3-0.7c0.4,0,0.9,1,1.9,2.2c-2.6-0.1-4.2-0.2-5.9-0.3
	C234.4,300.4,234.3,300,234.3,299.6z"/>
<path class="st0" d="M447.8,584.1c0-1.9,0-3.9,0-6.2c0.7,0,1.8,0,3.1,0c-0.2,1.5-0.5,2.8-0.5,4.2c0,0.2,0.9,0.4,1.4,0.6l0-0.1
	c-0.3,0.4-0.6,0.8-0.9,1.1c-0.3-0.4-0.9-0.9-1-1.3c-0.2-1.4-0.2-2.8-0.3-4.1c-0.2,0-0.5,0-0.7,0
	C448.5,580.3,448.1,582.2,447.8,584.1L447.8,584.1z"/>
<path class="st0" d="M470,587.9c2.5-0.6,4.1-0.7,3.4,2.2c-0.5-0.7-1.1-1.4-1.6-2.1c-0.3,0.2-0.5,0.3-0.8,0.5c0.7,2.5,1.5,5,2.2,7.5
	c-0.1,0.1-0.3,0.1-0.4,0.2C472,593.6,471.1,591,470,587.9z"/>
<path class="st0" d="M451.8,582.8c1,0.4,2.1,0.7,3.1,1.1c0.5,0.2,1,0.4,1.8,0.7c0.1-0.3-0.1,0.8-0.3,0.8c-2.8,0.1-5.6,0.1-8.4,0
	c-0.1,0-0.1-0.8-0.2-1.2c0,0-0.1,0-0.1,0c1.7,0.3,3.4,0.6,5.1,0.9c0.1-0.4,0.2-0.7,0.3-1.1C452.7,583.5,452.2,583.1,451.8,582.8
	L451.8,582.8z"/>
<path class="st0" d="M466.3,583.8c0.6,0,1.7,0,1.7,0c0.2-1.8,0.2-3.5-0.4-5.4c-0.5,0.7-1,1.4-1.7,2.3c-0.4-0.8-0.7-1.3-1-1.9
	c1.2-0.4,2.4-0.8,3.8-1.3c0,2.4,0.1,4.4,0,6.3c0,0.5-0.5,1.1-0.8,1.6C467.3,584.9,466.8,584.4,466.3,583.8z"/>
<path class="st0" d="M446.1,592.1c-0.8,1-1.4,1.8-1.9,2.5c-0.5-0.9-1.3-1.9-1.3-2.8c0-0.8,0.9-1.5,1.4-2.3
	C444.9,590.2,445.4,591,446.1,592.1z"/>
<path d="M451.8,582.8c0.5,0.4,0.9,0.8,1.4,1.2c-0.1,0.4-0.2,0.7-0.3,1.1c-1.7-0.3-3.4-0.6-5.1-0.9c0.4-1.9,0.7-3.8,1.1-5.7
	c0.2,0,0.5,0,0.7,0c0.1,1.4,0.1,2.8,0.3,4.1c0.1,0.5,0.6,0.9,1,1.3C451.2,583.5,451.5,583.1,451.8,582.8z"/>
</svg>
