<?xml version="1.0" encoding="utf-8"?>
<!-- Generator: Adobe Illustrator 19.2.0, SVG Export Plug-In . SVG Version: 6.00 Build 0)  -->
<svg version="1.1" xmlns="http://www.w3.org/2000/svg" xmlns:xlink="http://www.w3.org/1999/xlink" x="0px" y="0px"
	 viewBox="0 0 1024 1024" style="enable-background:new 0 0 1024 1024;" xml:space="preserve">
<style type="text/css">
	.st0{display:none;}
	.st1{display:inline;fill:#B23838;}
	.st2{display:inline;fill:#FFFFFF;}
	.st3{fill:#005355;}
</style>
<g id="Layer_1" class="st0">
	<circle class="st1" cx="510.9" cy="511.1" r="509.1"/>
</g>
<g id="Layer_2" class="st0">
	<path class="st2" d="M811,806.4C763.2,820.3,668.8,843,557.2,843c-125.1,0-228.1-25.7-309-88C177.1,699.7,133,610.7,133,507
		c1.2-198.7,170.4-344,447.5-344c95.6,0,170.4,16.8,206,30.6l-25.7,70.2c-44.1-15.8-99.3-28.7-182.7-28.7
		C377,235.2,273.8,336,273.8,503c0,169,98.3,268.8,290.8,268.8c69.9,0,117.7-7.9,142.2-17.8V555.4h-168v-69.2H811V806.4z"/>
	<path class="st2" d="M565,1074c55.5,0,131.2-13.3,177.3-45.7c50.8-36.6,68.5-87.3,68.5-165.4v-60.4l-104,22.1
		c0,96.4-10.6,138-39,161.3c-24.8,19.1-66.2,31.3-113.4,33.8L565,1074z"/>
</g>
<g id="Layer_3">
	<path class="st3" d="M810.8,879.3l0.2-393.1H538.8v69.2h168V754c-24.5,9.9-72.3,17.8-142.2,17.8C372,771.8,313.8,672,313.8,503
		c0-167,63.2-267.8,264.3-267.8c83.4,0,138.6,12.8,182.7,28.7l25.7-70.2c-35.6-13.8-110.4-30.6-206-30.6
		C303.4,163,144.2,308.3,143,507c0,103.8,34.1,192.7,105.3,248.1c80.9,62.3,183.9,88,309,88c55.3,0,106.3-5.6,149.6-12.9
		c0.9,15.2-1.3,66.1-10.3,108.1c0,0-4.5,28-28.7,47.6c-12.9,10.5-35.2,20.5-51.7,23.9c-33.3,6.9-67.9,10.5-103.3,10.5
		c-280.1,0-507.1-227.1-507.1-507.1S232.8,6,512.9,6S1020,233.1,1020,513.1c0,169.6-83.4,318.9-211.3,411c-5,4.3,0.8-0.6-3.2,2.5
		C807.5,914.4,810,894.5,810.8,879.3"/>
</g>
</svg>
