<?xml version="1.0" encoding="utf-8"?>
<!-- Generator: Adobe Illustrator 19.2.0, SVG Export Plug-In . SVG Version: 6.00 Build 0)  -->
<svg version="1.1" id="Layer_1" xmlns="http://www.w3.org/2000/svg" xmlns:xlink="http://www.w3.org/1999/xlink" x="0px" y="0px"
	 viewBox="0 0 1024 1024" style="enable-background:new 0 0 1024 1024;" xml:space="preserve">
<style type="text/css">
	.st0{fill:#E75300;}
	.st1{fill:#6BA2B9;}
	.st2{fill:#00457C;}
</style>
<g>
	<path class="st0" d="M214.5,189.2c-5.4,9-6.6,17-6.7,32.8c-0.3,98.8,6.5,210.4,79.4,304.2c48.8,62.7,169.3,181,211,255.4
		c53,94.8,76.7,154.6,86.7,208.4c3.9,20.7,8.3,31.5,20.3,31.5c9.9,0,19.3-8.2,22.5-33.7c7.2-64,12.5-146.1-9.9-217.8
		c-31.1-99.6-98.2-196.4-211.4-304.6c-92.7-88.7-141.2-166.5-156.7-252.4c-1.9-10.5-2.4-16.1-8.7-23.7
		C231.1,177.2,218,183.2,214.5,189.2"/>
	<path class="st1" d="M823.3,162.2c4.8,8.1,5.9,15.3,6,29.4c0.3,88.6-5.8,188.7-71.3,272.9C714.2,520.9,606,627,568.7,693.6
		c-47.6,85-68.8,138.6-77.8,186.9c-3.5,18.6-7.4,28.2-18.2,28.2c-8.9,0-17.3-7.4-20.1-30.3c-6.4-57.4-11.2-131,8.9-195.4
		c27.9-89.3,88.1-176.2,189.6-273.2c83.2-79.6,126.7-149.4,140.6-226.5c1.7-9.4,2.2-14.4,7.8-21.3
		C808.3,151.4,820,156.8,823.3,162.2"/>
	<path class="st2" d="M510.4,577.5c-21.7,35.4-37.9,70.3-48.9,105.7c-3.5,11.2-6.2,22.7-8.3,34.3c18.5,23.1,34.3,45.1,45,64.1
		c5.1,9.1,9.8,17.8,14.4,26.3c12.6-31.7,30.5-68.4,56.2-114.2c2.8-5,6-10.2,9.6-15.6C560.1,644.9,537.6,611.5,510.4,577.5"/>
	<path class="st2" d="M325.7,11.7c-5.4,9-6.6,17-6.7,32.8c-0.3,98.8,6.5,210.4,79.4,304.2c48.8,62.8,169.4,181,211,255.4
		c53,94.8,76.7,154.6,86.8,208.4c3.9,20.7,8.3,31.5,20.2,31.5c9.9,0,19.3-8.2,22.5-33.7c7.2-63.9,12.5-146-9.9-217.8
		c-31.1-99.6-98.2-196.4-211.4-304.6c-92.7-88.7-141.2-166.5-156.7-252.4c-1.9-10.5-2.4-16-8.7-23.7C342.3-0.4,329.3,5.7,325.7,11.7
		"/>
</g>
</svg>
